<svg version="1.1" id="Layer_1" xmlns="http://www.w3.org/2000/svg" xmlns:xlink="http://www.w3.org/1999/xlink" x="1px" y="1px" width="100%" viewBox="0 0 500 500" enable-background="new 0 0 500 500" xml:space="preserve">
<path fill="#000000" opacity="0.000000" stroke="none" d=" M291.000000,501.000000   C194.000031,501.000000 97.500046,501.000000 1.000052,501.000000   C1.000035,334.333405 1.000035,167.666794 1.000017,1.000141   C167.666565,1.000094 334.333130,1.000094 500.999756,1.000047   C500.999847,167.666519 500.999847,334.333038 500.999939,500.999786   C431.166656,501.000000 361.333344,501.000000 291.000000,501.000000  M187.036148,247.072128   C187.036148,224.546555 187.036148,202.020981 187.036148,179.495422   C186.581009,179.324738 186.125854,179.154068 185.670715,178.983383   C185.108154,180.304474 184.086533,181.624237 184.082748,182.946930   C184.075806,185.376694 184.965271,187.808090 184.965988,190.238968   C184.975342,221.492722 184.893509,252.746506 184.095703,284.446838   C184.063797,290.607391 183.927231,296.769806 184.039291,302.927765   C184.106430,306.616882 184.562302,310.298981 185.221313,314.564850   C185.909744,313.947510 187.157547,313.359772 187.192032,312.707855   C187.362564,309.483948 187.212311,306.243042 187.906891,302.550415   C187.937836,285.226227 187.980789,267.902039 187.964050,250.577896   C187.963226,249.718948 187.443085,248.860489 187.036148,247.072128  M145.875107,312.820374   C150.744461,313.599426 155.656113,314.182281 160.469727,315.219971   C164.292877,316.044098 165.989944,315.021973 165.956955,310.975189   C165.860489,299.146790 165.851990,287.316864 165.928802,275.488342   C165.946793,272.721924 165.206863,271.495544 162.167831,270.907928   C151.085052,268.764984 143.799896,262.129578 141.467636,250.969070   C138.320267,235.908218 146.575470,223.444016 161.307373,220.063461   C164.938232,219.230270 166.007004,218.244766 165.967651,214.801880   C165.840088,203.640533 165.931091,192.476761 165.923279,181.313934   C165.918289,174.172501 165.909927,174.199173 159.067047,175.025497   C138.956787,177.454010 122.456230,186.350143 110.159111,202.568390   C97.109924,219.778473 92.949249,239.569077 97.538109,260.125061   C103.323631,286.041595 119.784798,303.647186 145.875107,312.820374  M242.901230,255.397430   C242.901230,243.138062 242.901230,230.878677 242.901230,218.381470   C238.004684,218.381470 233.798996,218.381470 229.149979,218.381470   C229.149979,225.515182 229.149979,232.258362 229.149979,240.516281   C225.288147,234.730118 222.158310,230.254272 219.251312,225.638092   C214.130142,217.505936 211.233276,216.316895 201.418030,218.802444   C201.418030,233.308395 201.418030,247.853149 201.418030,262.901428   C205.064163,262.901428 208.389465,263.172607 211.627304,262.759064   C212.811691,262.607819 214.665970,260.871918 214.715759,259.789978   C215.009033,253.416321 214.860077,247.022324 214.860077,240.447693   C215.561127,241.282242 216.489456,242.163467 217.151291,243.212799   C220.564774,248.624832 223.825287,254.135559 227.337204,259.481781   C228.239227,260.854950 229.761856,262.549896 231.167328,262.721497   C234.883057,263.175201 238.690811,262.875244 242.904129,262.875244   C242.904129,260.283112 242.904129,258.324280 242.901230,255.397430  M340.893433,234.482025   C340.893433,229.209198 340.893433,223.936371 340.893433,218.464294   C335.983337,218.464294 331.770782,218.464294 327.031311,218.464294   C327.031311,225.603394 326.827850,232.407043 327.107788,239.190750   C327.275085,243.245605 327.702332,247.421951 328.886108,251.275406   C331.430115,259.556885 337.073303,262.683014 346.585236,263.067963   C354.191345,263.375763 364.309265,258.185150 364.859711,251.220886   C365.715881,240.388382 365.959869,229.507507 366.475189,218.391342   C361.512756,218.391342 357.615479,218.391342 353.080902,218.391342   C353.080902,221.121521 353.084686,223.573212 353.080139,226.024902   C353.069061,232.021484 353.120911,238.019226 353.017639,244.014267   C352.946655,248.135605 350.402954,250.562057 346.589386,250.573425   C342.746368,250.584885 340.819275,247.924973 340.908691,243.965714   C340.972626,241.135712 340.903290,238.302719 340.893433,234.482025  M264.745087,252.078537   C263.432373,251.136749 262.119659,250.194962 260.806946,249.253174   C260.971832,248.807816 261.136749,248.362457 261.301636,247.917099   C268.643097,247.917099 275.984589,247.917099 283.182465,247.917099   C285.457336,235.347351 278.503967,228.081589 270.813263,227.234329   C254.391541,225.425201 249.072922,230.046539 247.367111,243.809860   C246.167328,253.490265 252.038651,261.790497 263.993073,263.012817   C275.220856,264.160797 283.428345,256.101318 282.529663,249.310410   C276.631897,248.660309 270.765137,248.188080 264.745087,252.078537  M298.662476,227.168991   C294.270569,227.168991 289.878662,227.168991 284.446228,227.168991   C287.787567,231.938919 290.157562,236.060074 293.255005,239.532227   C296.233154,242.870621 296.225281,245.483536 293.651031,248.987701   C290.593811,253.149353 288.084930,257.713898 284.933350,262.751312   C293.176025,262.818176 301.262390,265.492523 304.242065,253.851654   C308.504181,264.664062 316.119049,263.334229 324.578583,262.493347   C321.409149,257.899292 319.125610,253.477386 315.807495,250.060059   C311.618164,245.745392 313.729980,242.611542 316.355011,238.987076   C318.974457,235.370285 321.383087,231.600815 324.218445,227.403351   C316.157684,226.988663 308.351807,224.381592 305.238251,235.041779   C302.809631,231.824509 301.135223,229.606354 298.662476,227.168991  M378.587952,261.096039   C383.280853,261.696045 388.002167,262.934265 392.659088,262.726685   C397.906311,262.492706 402.730377,256.900391 402.884796,252.305908   C403.066895,246.889954 400.524811,244.122238 393.776733,241.926270   C392.146881,241.395889 390.747467,240.157532 390.127686,239.781754   C394.143921,239.408463 398.474060,239.474869 402.485443,238.376877   C403.875000,237.996536 399.885162,229.907242 396.269104,229.038223   C390.939423,227.757339 385.255554,227.007416 379.821259,227.399475   C375.372620,227.720459 372.262909,233.426285 372.088959,238.174423   C371.884644,243.750412 375.287079,246.155975 379.833801,247.641510   C382.316956,248.452820 384.962067,248.798065 387.394012,249.722260   C388.381226,250.097427 388.995850,251.453079 389.780029,252.362579   C388.490479,252.566711 386.518494,253.409836 386.017914,252.875214   C381.469696,248.017822 375.905365,250.938370 370.741669,250.066162   C371.461884,256.554565 372.259491,257.722046 378.587952,261.096039  M162.334854,266.073578   C163.389389,266.172211 164.935989,266.761322 165.412308,266.283539   C167.356094,264.333710 165.590775,254.134277 163.280136,252.775177   C156.140198,248.575439 156.139694,242.419922 163.188690,237.795731   C164.286163,237.075775 165.689468,235.869293 165.798798,234.772858   C166.138397,231.367096 165.923111,227.906006 165.923111,224.570038   C156.080566,223.295715 146.755219,230.893311 145.189392,241.363907   C143.581024,252.118866 149.187332,263.337463 162.334854,266.073578  z"/>
<path fill="#D01819" opacity="1.000000" stroke="none" d=" M145.503281,312.652893   C119.784798,303.647186 103.323631,286.041595 97.538109,260.125061   C92.949249,239.569077 97.109924,219.778473 110.159111,202.568390   C122.456230,186.350143 138.956787,177.454010 159.067047,175.025497   C165.909927,174.199173 165.918289,174.172501 165.923279,181.313934   C165.931091,192.476761 165.840088,203.640533 165.967651,214.801880   C166.007004,218.244766 164.938232,219.230270 161.307373,220.063461   C146.575470,223.444016 138.320267,235.908218 141.467636,250.969070   C143.799896,262.129578 151.085052,268.764984 162.167831,270.907928   C165.206863,271.495544 165.946793,272.721924 165.928802,275.488342   C165.851990,287.316864 165.860489,299.146790 165.956955,310.975189   C165.989944,315.021973 164.292877,316.044098 160.469727,315.219971   C155.656113,314.182281 150.744461,313.599426 145.503281,312.652893  M105.033539,225.881195   C103.991890,232.838791 102.799240,239.778412 101.968483,246.761093   C101.512634,250.592575 103.351013,252.724792 107.523132,252.153198   C116.268837,250.954971 125.017296,249.776794 132.149033,248.809525   C134.768707,241.073181 137.154388,234.246262 139.328735,227.352707   C139.627762,226.404663 139.263916,224.641281 138.553452,224.074341   C130.965179,218.019165 123.245087,212.129196 114.976364,205.742126   C111.568779,212.577988 108.442665,218.849182 105.033539,225.881195  M128.507584,203.024185   C133.082321,207.983078 137.727554,212.879471 142.203583,217.925903   C144.628693,220.660080 146.608734,219.971313 149.062866,217.292953   C143.642456,208.471268 138.186584,199.591858 132.420334,190.207321   C129.071198,193.017853 126.369537,195.285034 122.272614,198.723083   C124.648659,200.321671 126.307518,201.437744 128.507584,203.024185  z"/>
<path fill="#D11718" opacity="1.000000" stroke="none" d=" M242.902679,255.881439   C242.904129,258.324280 242.904129,260.283112 242.904129,262.875244   C238.690811,262.875244 234.883057,263.175201 231.167328,262.721497   C229.761856,262.549896 228.239227,260.854950 227.337204,259.481781   C223.825287,254.135559 220.564774,248.624832 217.151291,243.212799   C216.489456,242.163467 215.561127,241.282242 214.860077,240.447693   C214.860077,247.022324 215.009033,253.416321 214.715759,259.789978   C214.665970,260.871918 212.811691,262.607819 211.627304,262.759064   C208.389465,263.172607 205.064163,262.901428 201.418030,262.901428   C201.418030,247.853149 201.418030,233.308395 201.418030,218.802444   C211.233276,216.316895 214.130142,217.505936 219.251312,225.638092   C222.158310,230.254272 225.288147,234.730118 229.149979,240.516281   C229.149979,232.258362 229.149979,225.515182 229.149979,218.381470   C233.798996,218.381470 238.004684,218.381470 242.901230,218.381470   C242.901230,230.878677 242.901230,243.138062 242.902679,255.881439  z"/>
<path fill="#D01819" opacity="1.000000" stroke="none" d=" M340.893433,234.976532   C340.903290,238.302719 340.972626,241.135712 340.908691,243.965714   C340.819275,247.924973 342.746368,250.584885 346.589386,250.573425   C350.402954,250.562057 352.946655,248.135605 353.017639,244.014267   C353.120911,238.019226 353.069061,232.021484 353.080139,226.024902   C353.084686,223.573212 353.080902,221.121521 353.080902,218.391342   C357.615479,218.391342 361.512756,218.391342 366.475189,218.391342   C365.959869,229.507507 365.715881,240.388382 364.859711,251.220886   C364.309265,258.185150 354.191345,263.375763 346.585236,263.067963   C337.073303,262.683014 331.430115,259.556885 328.886108,251.275406   C327.702332,247.421951 327.275085,243.245605 327.107788,239.190750   C326.827850,232.407043 327.031311,225.603394 327.031311,218.464294   C331.770782,218.464294 335.983337,218.464294 340.893433,218.464294   C340.893433,223.936371 340.893433,229.209198 340.893433,234.976532  z"/>
<path fill="#CE191A" opacity="1.000000" stroke="none" d=" M265.157867,252.084869   C270.765137,248.188080 276.631897,248.660309 282.529663,249.310410   C283.428345,256.101318 275.220856,264.160797 263.993073,263.012817   C252.038651,261.790497 246.167328,253.490265 247.367111,243.809860   C249.072922,230.046539 254.391541,225.425201 270.813263,227.234329   C278.503967,228.081589 285.457336,235.347351 283.182465,247.917099   C275.984589,247.917099 268.643097,247.917099 261.301636,247.917099   C261.136749,248.362457 260.971832,248.807816 260.806946,249.253174   C262.119659,250.194962 263.432373,251.136749 265.157867,252.084869  M262.497803,240.992966   C264.953064,240.992966 267.408356,240.992966 270.480133,240.992966   C266.570160,235.451920 264.663544,235.626373 262.497803,240.992966  z"/>
<path fill="#CE191A" opacity="1.000000" stroke="none" d=" M299.061646,227.278595   C301.135223,229.606354 302.809631,231.824509 305.238251,235.041779   C308.351807,224.381592 316.157684,226.988663 324.218445,227.403351   C321.383087,231.600815 318.974457,235.370285 316.355011,238.987076   C313.729980,242.611542 311.618164,245.745392 315.807495,250.060059   C319.125610,253.477386 321.409149,257.899292 324.578583,262.493347   C316.119049,263.334229 308.504181,264.664062 304.242065,253.851654   C301.262390,265.492523 293.176025,262.818176 284.933350,262.751312   C288.084930,257.713898 290.593811,253.149353 293.651031,248.987701   C296.225281,245.483536 296.233154,242.870621 293.255005,239.532227   C290.157562,236.060074 287.787567,231.938919 284.446228,227.168991   C289.878662,227.168991 294.270569,227.168991 299.061646,227.278595  z"/>
<path fill="#CD191B" opacity="1.000000" stroke="none" d=" M378.213562,260.988953   C372.259491,257.722046 371.461884,256.554565 370.741669,250.066162   C375.905365,250.938370 381.469696,248.017822 386.017914,252.875214   C386.518494,253.409836 388.490479,252.566711 389.780029,252.362579   C388.995850,251.453079 388.381226,250.097427 387.394012,249.722260   C384.962067,248.798065 382.316956,248.452820 379.833801,247.641510   C375.287079,246.155975 371.884644,243.750412 372.088959,238.174423   C372.262909,233.426285 375.372620,227.720459 379.821259,227.399475   C385.255554,227.007416 390.939423,227.757339 396.269104,229.038223   C399.885162,229.907242 403.875000,237.996536 402.485443,238.376877   C398.474060,239.474869 394.143921,239.408463 390.127686,239.781754   C390.747467,240.157532 392.146881,241.395889 393.776733,241.926270   C400.524811,244.122238 403.066895,246.889954 402.884796,252.305908   C402.730377,256.900391 397.906311,262.492706 392.659088,262.726685   C388.002167,262.934265 383.280853,261.696045 378.213562,260.988953  z"/>
<path fill="#CD191B" opacity="1.000000" stroke="none" d=" M161.936798,266.009583   C149.187332,263.337463 143.581024,252.118866 145.189392,241.363907   C146.755219,230.893311 156.080566,223.295715 165.923111,224.570038   C165.923111,227.906006 166.138397,231.367096 165.798798,234.772858   C165.689468,235.869293 164.286163,237.075775 163.188690,237.795731   C156.139694,242.419922 156.140198,248.575439 163.280136,252.775177   C165.590775,254.134277 167.356094,264.333710 165.412308,266.283539   C164.935989,266.761322 163.389389,266.172211 161.936798,266.009583  z"/>
<path fill="#CB1B21" opacity="1.000000" stroke="none" d=" M187.175171,303.008148   C187.212311,306.243042 187.362564,309.483948 187.192032,312.707855   C187.157547,313.359772 185.909744,313.947510 185.099609,313.810120   C184.930191,303.370361 184.882477,293.685303 184.834763,284.000275   C184.893509,252.746506 184.975342,221.492722 184.965988,190.238968   C184.965271,187.808090 184.075806,185.376694 184.082748,182.946930   C184.086533,181.624237 185.108154,180.304474 185.670715,178.983383   C186.125854,179.154068 186.581009,179.324738 187.036148,179.495422   C187.036148,202.020981 187.036148,224.546555 187.028534,248.001526   C187.072357,266.956665 187.123779,284.982422 187.175171,303.008148  z"/>
<path fill="#FFFFFF" opacity="1.000000" stroke="none" d=" M187.541046,302.779297   C187.123779,284.982422 187.072357,266.956665 187.092850,248.466370   C187.443085,248.860489 187.963226,249.718948 187.964050,250.577896   C187.980789,267.902039 187.937836,285.226227 187.541046,302.779297  z"/>
<path fill="#FFFFFF" opacity="1.000000" stroke="none" d=" M184.465240,284.223572   C184.882477,293.685303 184.930191,303.370361 184.910675,313.519806   C184.562302,310.298981 184.106430,306.616882 184.039291,302.927765   C183.927231,296.769806 184.063797,290.607391 184.465240,284.223572  z"/>
<path fill="#000000" opacity="0.000000" stroke="none" d=" M105.175049,225.500793   C108.442665,218.849182 111.568779,212.577988 114.976364,205.742126   C123.245087,212.129196 130.965179,218.019165 138.553452,224.074341   C139.263916,224.641281 139.627762,226.404663 139.328735,227.352707   C137.154388,234.246262 134.768707,241.073181 132.149033,248.809525   C125.017296,249.776794 116.268837,250.954971 107.523132,252.153198   C103.351013,252.724792 101.512634,250.592575 101.968483,246.761093   C102.799240,239.778412 103.991890,232.838791 105.175049,225.500793  z"/>
<path fill="#000000" opacity="0.000000" stroke="none" d=" M128.236984,202.789001   C126.307518,201.437744 124.648659,200.321671 122.272614,198.723083   C126.369537,195.285034 129.071198,193.017853 132.420334,190.207321   C138.186584,199.591858 143.642456,208.471268 149.062866,217.292953   C146.608734,219.971313 144.628693,220.660080 142.203583,217.925903   C137.727554,212.879471 133.082321,207.983078 128.236984,202.789001  z"/>
<path fill="#000000" opacity="0.000000" stroke="none" d=" M262.137512,240.881470   C264.663544,235.626373 266.570160,235.451920 270.480133,240.992966   C267.408356,240.992966 264.953064,240.992966 262.137512,240.881470  z"/>
</svg>